<?xml version="1.0" encoding="UTF-8"?>
<svg id="ZEPHYRION" xmlns="http://www.w3.org/2000/svg" viewBox="0 0 1224 210.35">
  <defs>
    <style>
      .cls-1 {
        fill: #1da1f2;
        opacity: .71;
      }

      .cls-1, .cls-2, .cls-3 {
        stroke-width: 0px;
      }

      .cls-2 {
        fill: #fff;
      }

      .cls-3 {
        fill: #c9002b;
      }
    </style>
  </defs>
  <g>
    <rect class="cls-1" x="168.63" y="30.81" width="148.74" height="148.74" transform="translate(-3.2 202.63) rotate(-45)"/>
    <polygon class="cls-1" points="169.58 0 101.11 68.47 137.82 105.18 101.11 141.88 169.58 210.35 274.76 105.18 169.58 0"/>
    <rect class="cls-3" x="38.45" y="115.93" width="51.91" height="51.91" transform="translate(-81.46 87.1) rotate(-45)"/>
  </g>
  <g>
    <path class="cls-2" d="m396.43,171.66V50.9h48.3c10.2-.59,23.62,4.11,30.97,10.96,7.08,6.6,11.64,19.96,11.64,29.24,0,9.26-4.55,22.6-11.64,29.15-7.37,6.81-20.78,11.46-30.97,10.87h-22.43v40.54h-25.88Zm25.88-62.1h18.8c6.1,0,10.95-1.67,14.58-5,3.62-3.33,5.43-7.82,5.43-13.46s-1.81-10.29-5.43-13.63c-3.62-3.33-8.48-5-14.58-5h-18.8v37.09Z"/>
    <path class="cls-2" d="m581.45,91.7c7.03,7.09,10.2,20.52,9.57,30.1v49.85h-24.32v-47.61c0-14.15-5.69-21.22-17.08-21.22-5.98,0-10.64,1.98-13.97,5.95-3.34,3.97-5,9.52-5,16.65v46.23h-24.32V50.9h24.32v42.27c6.33-7.48,14.78-11.21,25.36-11.21s19.06,3.31,25.45,9.75Z"/>
    <g>
      <rect class="cls-2" x="609.49" y="62.46" width="24.32" height="20.53"/>
      <path class="cls-2" d="m658.31,151.13v-68.14h-24.5v68.14h-24.32v20.53h72.28v-20.53h-23.46Z"/>
    </g>
    <path class="cls-2" d="m689.37,171.66c10.93-15.07,21.85-30.13,32.78-45.2-10.41-14.49-20.82-28.98-31.22-43.47h27.95c7.25,10.42,10.87,15.63,18.11,26.05,7.52-10.42,11.28-15.63,18.8-26.05h26.22c-10.41,14.49-20.82,28.98-31.22,43.47,10.98,15.07,21.97,30.13,32.95,45.2h-27.95c-6.73-9.26-13.46-18.52-20.18-27.77-6.67,9.26-13.34,18.52-20.01,27.77h-26.22Z"/>
    <path class="cls-2" d="m808.23,171.66c-6.27-29.56-12.54-59.11-18.8-88.67h23.12c3.62,20.3,7.25,40.6,10.87,60.9,4.49-16.45,8.97-32.89,13.46-49.34h15.87c4.43,16.45,8.86,32.89,13.28,49.34,3.62-20.3,7.25-40.6,10.87-60.9h22.43c-6.33,29.56-12.65,59.11-18.98,88.67h-23.12c-4.26-15.01-8.51-30.02-12.77-45.03-4.31,15.01-8.63,30.02-12.94,45.03h-23.29Z"/>
    <path class="cls-2" d="m974.71,105.07c-7.25,0-12.56,2.07-15.96,6.21-3.39,4.14-5.09,9.78-5.09,16.91v22.94h24.32v20.53h-66.59v-20.53h17.94v-47.61h-17.94v-20.53h40.54c.28,6.14.41,9.21.69,15.35,5.64-10.24,14.43-15.35,26.39-15.35h10.18v22.08h-14.49Z"/>
    <path class="cls-2" d="m1088.57,151.13v20.53h-11.9c-10.47,0-15.81-4.31-16.04-12.94-5.46,8.67-18.5,14.31-28.29,13.97-9.21-.32-17.34-2.3-23.38-6.9-6.04-4.6-9.06-11.04-9.06-19.32,0-9.43,3.42-16.68,10.26-21.74,6.84-5.06,16.82-7.59,29.93-7.59h16.73v-4.31c0-4.03-1.35-7.22-4.05-9.57-2.7-2.36-6.53-3.54-11.47-3.54-4.37,0-7.99.98-10.87,2.93-2.87,1.95-4.54,4.6-5,7.94h-23.63c.92-8.62,5-15.55,12.25-20.79,7.25-5.23,16.68-7.85,28.29-7.85,12.31,0,21.82,2.76,28.55,8.28,6.73,5.52,10.09,13.51,10.09,23.98v31.4c0,2.19.35,3.65,1.04,4.4.69.75,2.01,1.12,3.97,1.12h2.59Zm-31.74-17.77h-17.08c-4.95,0-8.74,1.01-11.39,3.02-2.65,2.01-3.97,4.86-3.97,8.54,0,3.11,1.12,5.58,3.36,7.42,2.24,1.84,5.32,2.76,9.23,2.76,5.98,0,10.78-1.78,14.4-5.35,3.62-3.56,5.43-8.22,5.43-13.97v-2.41Z"/>
    <path class="cls-2" d="m1184.92,94.38c8.16,9.15,10.4,21.38,11.3,33.12.81,10.53-4.28,24.91-11.3,32.78-6.4,7.17-19.22,12.7-28.9,12.42-10.72-.31-19.72-4.03-26.05-12.08v45.54h-24.32v-123.17h21.22c.97,4.83,1.45,7.25,2.42,12.08,6.33-8.74,15.52-12.79,26.57-13.11,9.72-.28,22.63,5.2,29.07,12.42Zm-19.24,51.41c3.8-4.72,5.69-10.93,5.69-18.63s-1.9-13.71-5.69-18.37c-3.79-4.66-8.86-6.99-15.18-6.99s-11.53,2.33-15.27,6.99c-3.74,4.66-5.61,10.78-5.61,18.37s1.9,13.77,5.69,18.55c3.8,4.77,8.86,7.16,15.18,7.16s11.39-2.36,15.18-7.07Z"/>
  </g>
</svg>