<?xml version="1.0" encoding="UTF-8"?>
<svg id="Layer_1" data-name="Layer 1" xmlns="http://www.w3.org/2000/svg" viewBox="0 0 700 700">
  <defs>
    <style>
      .cls-1 {
        fill: #b1ff00;
        stroke-width: 0px;
      }
    </style>
  </defs>
  <path class="cls-1" d="m513.49,328.4c-24.81,0-45-20.18-45-44.99s20.19-44.99,45-44.99,44.99,20.18,44.99,44.99-20.18,44.99-44.99,44.99Zm0-65.23c-11.17,0-20.25,9.08-20.25,20.24s9.08,20.24,20.25,20.24,20.24-9.08,20.24-20.24-9.08-20.24-20.24-20.24Z"/>
  <path class="cls-1" d="m350.01,270.95c-26.65,0-48.33-21.68-48.33-48.33s21.68-48.32,48.33-48.32,48.32,21.68,48.32,48.32-21.67,48.33-48.32,48.33Zm0-70.07c-12,0-21.75,9.75-21.75,21.74s9.75,21.74,21.75,21.74,21.74-9.75,21.74-21.74-9.75-21.74-21.74-21.74Z"/>
  <polygon class="cls-1" points="525.87 511.71 525.87 315.88 501.12 315.88 501.12 456.72 385.35 250.07 363.75 262.16 503.55 511.71 525.87 511.71"/>
  <g>
    <polygon class="cls-1" points="426 373.28 350 470.68 350 510.91 439.12 396.7 426 373.28"/>
    <polygon class="cls-1" points="465.54 362.84 501.12 317.25 501.12 315.88 502.15 315.88 482.66 300.67 452.42 339.42 465.54 362.84"/>
  </g>
  <path class="cls-1" d="m141.52,283.42c0-24.81,20.18-44.99,44.99-44.99,24.81,0,45,20.18,45,44.99s-20.19,44.99-45,44.99c-24.81,0-44.99-20.18-44.99-44.99Zm24.75,0c0,11.16,9.08,20.24,20.24,20.24,11.17,0,20.25-9.08,20.25-20.24,0-11.16-9.08-20.24-20.25-20.24s-20.24,9.08-20.24,20.24Z"/>
  <polygon class="cls-1" points="174.13 511.71 174.13 315.88 198.88 315.88 198.88 456.72 314.65 250.07 336.25 262.16 196.45 511.71 174.13 511.71"/>
  <g>
    <polygon class="cls-1" points="274 373.28 350 470.68 350 510.91 260.88 396.7 274 373.28"/>
    <polygon class="cls-1" points="234.46 362.84 198.88 317.25 198.88 315.88 197.85 315.88 217.34 300.67 247.58 339.42 234.46 362.84"/>
  </g>
</svg>