<?xml version="1.0" encoding="UTF-8"?>
<svg id="Layer_1" data-name="Layer 1" xmlns="http://www.w3.org/2000/svg" viewBox="0 0 700 700">
  <defs>
    <style>
      .cls-1 {
        stroke-width: 0px;
      }
    </style>
  </defs>
  <path class="cls-1" d="m513.49,328.9c-24.81,0-45-20.18-45-44.99s20.19-44.99,45-44.99,44.99,20.18,44.99,44.99-20.18,44.99-44.99,44.99Zm0-65.23c-11.17,0-20.25,9.08-20.25,20.24s9.08,20.24,20.25,20.24,20.24-9.08,20.24-20.24-9.08-20.24-20.24-20.24Z"/>
  <path class="cls-1" d="m350.01,271.45c-26.65,0-48.33-21.68-48.33-48.33s21.68-48.32,48.33-48.32,48.32,21.68,48.32,48.32-21.67,48.33-48.32,48.33Zm0-70.07c-12,0-21.75,9.75-21.75,21.74s9.75,21.74,21.75,21.74,21.74-9.75,21.74-21.74-9.75-21.74-21.74-21.74Z"/>
  <polygon class="cls-1" points="525.87 512.21 525.87 316.38 501.12 316.38 501.12 457.22 385.35 250.57 363.75 262.66 503.55 512.21 525.87 512.21"/>
  <g>
    <polygon class="cls-1" points="426 373.78 350 471.18 350 511.41 439.12 397.2 426 373.78"/>
    <polygon class="cls-1" points="465.54 363.34 501.12 317.75 501.12 316.38 502.15 316.38 482.66 301.17 452.42 339.92 465.54 363.34"/>
  </g>
  <path class="cls-1" d="m141.52,283.92c0-24.81,20.18-44.99,44.99-44.99,24.81,0,45,20.18,45,44.99,0,24.8-20.19,44.99-45,44.99-24.81,0-44.99-20.18-44.99-44.99Zm24.75,0c0,11.16,9.08,20.24,20.24,20.24,11.17,0,20.25-9.08,20.25-20.24,0-11.16-9.08-20.24-20.25-20.24s-20.24,9.08-20.24,20.24Z"/>
  <polygon class="cls-1" points="174.13 512.21 174.13 316.38 198.88 316.38 198.88 457.22 314.65 250.57 336.25 262.66 196.45 512.21 174.13 512.21"/>
  <g>
    <polygon class="cls-1" points="274 373.78 350 471.18 350 511.41 260.88 397.2 274 373.78"/>
    <polygon class="cls-1" points="234.46 363.34 198.88 317.75 198.88 316.38 197.85 316.38 217.34 301.17 247.58 339.92 234.46 363.34"/>
  </g>
</svg>