<?xml version="1.0" encoding="UTF-8"?>
<svg id="Layer_1" data-name="Layer 1" xmlns="http://www.w3.org/2000/svg" viewBox="0 0 700 700">
  <defs>
    <style>
      .cls-1, .cls-2 {
        stroke-width: 0px;
      }

      .cls-2 {
        fill: #8ecc00;
      }
    </style>
  </defs>
  <path class="cls-1" d="m186.86,328.62s-.07-.03-.1-.05c-.83-.41-1.68-.78-2.55-1.12-.1-.04-.19-.07-.29-.11-.83-.31-1.66-.6-2.52-.85-.14-.04-.29-.07-.43-.11-.83-.23-1.68-.44-2.53-.6-.13-.02-.26-.04-.38-.06-1.88-.33-3.8-.54-5.78-.54v-.02c-9.11,0-16.49-7.38-16.49-16.49h0v-19.28h-16.52v19.28c0,9.87,4.36,18.71,11.23,24.76-6.87,6.05-11.23,14.89-11.23,24.76v33.02h16.52v-33.02h0c0-9.11,7.38-16.49,16.49-16.49,0,0,0,0,0,0,0,0,0,0,0,0,9.11,0,16.49,7.39,16.49,16.49v33.02h16.52v-33.02h0c0-12.99-7.52-24.2-18.44-29.59Z"/>
  <path class="cls-1" d="m309.24,341.72v-16.52h-8.26v-.02c-9.87,0-18.71,4.35-24.76,11.22-6.05-6.87-14.88-11.22-24.76-11.22v.02h-8.26v16.52h8.26c9.11,0,16.5,7.37,16.5,16.48s-7.39,16.5-16.5,16.5h0s-8.26,0-8.26,0v16.52h8.26c9.87,0,18.71-4.36,24.76-11.23,6.05,6.87,14.88,11.23,24.76,11.23h8.26v-16.52h-8.26c-9.11,0-16.5-7.39-16.5-16.5s7.39-16.49,16.5-16.49h0s8.26,0,8.26,0Z"/>
  <path class="cls-1" d="m95.56,325.21h-33.02v85.39h16.52v-23.81c4.86,2.81,10.48,4.44,16.49,4.44,18.23,0,33.02-14.78,33.02-33.02s-14.78-33.02-33.02-33.02Zm0,49.51c-8.88,0-16.07-7.03-16.43-15.82l-.08.09v-16.54l.68-.71h15.83c9.11,0,16.49,7.39,16.49,16.49s-7.38,16.49-16.49,16.49Z"/>
  <path class="cls-1" d="m604.44,325.21h-33.02v85.39h16.52v-23.81c4.86,2.81,10.48,4.44,16.49,4.44,18.23,0,33.02-14.78,33.02-33.02s-14.78-33.02-33.02-33.02Zm0,49.51c-8.88,0-16.07-7.03-16.43-15.82l-.08.09v-16.54l.68-.71h15.83c9.11,0,16.49,7.39,16.49,16.49s-7.38,16.49-16.49,16.49Z"/>
  <path class="cls-1" d="m560.69,358.19c0-18.23-14.78-33.01-33.01-33.01s-33.01,14.78-33.01,33.01,14.78,33.02,33.01,33.02c6.01,0,11.64-1.62,16.49-4.42v4.42h16.56v-33.02h-.04Zm-33.01,16.5c-9.11,0-16.49-7.38-16.49-16.49s7.39-16.48,16.49-16.48,16.49,7.38,16.49,16.48-7.39,16.49-16.49,16.49Z"/>
  <g>
    <path class="cls-2" d="m411.64,346.03c-6.12,0-11.09-4.98-11.09-11.09s4.98-11.09,11.09-11.09,11.09,4.98,11.09,11.09-4.97,11.09-11.09,11.09Zm0-16.08c-2.75,0-4.99,2.24-4.99,4.99s2.24,4.99,4.99,4.99,4.99-2.24,4.99-4.99-2.24-4.99-4.99-4.99Z"/>
    <path class="cls-2" d="m371.33,331.87c-6.57,0-11.92-5.34-11.92-11.92s5.35-11.91,11.92-11.91,11.91,5.34,11.91,11.91-5.34,11.92-11.91,11.92Zm0-17.27c-2.96,0-5.36,2.4-5.36,5.36s2.4,5.36,5.36,5.36,5.36-2.4,5.36-5.36-2.4-5.36-5.36-5.36Z"/>
    <polygon class="cls-2" points="414.69 391.22 414.69 342.95 408.59 342.95 408.59 377.67 380.05 326.72 374.72 329.7 409.19 391.22 414.69 391.22"/>
    <g>
      <polygon class="cls-2" points="390.07 357.1 371.33 381.11 371.33 391.03 393.3 362.87 390.07 357.1"/>
      <polygon class="cls-2" points="399.82 354.52 408.59 343.28 408.59 342.95 408.84 342.95 404.04 339.19 396.58 348.75 399.82 354.52"/>
    </g>
    <path class="cls-2" d="m319.93,334.94c0-6.12,4.97-11.09,11.09-11.09,6.12,0,11.09,4.98,11.09,11.09s-4.98,11.09-11.09,11.09c-6.12,0-11.09-4.98-11.09-11.09Zm6.1,0c0,2.75,2.24,4.99,4.99,4.99s4.99-2.24,4.99-4.99-2.24-4.99-4.99-4.99-4.99,2.24-4.99,4.99Z"/>
    <polygon class="cls-2" points="327.97 391.22 327.97 342.95 334.07 342.95 334.07 377.67 362.62 326.72 367.94 329.7 333.48 391.22 327.97 391.22"/>
    <g>
      <polygon class="cls-2" points="352.59 357.1 371.33 381.11 371.33 391.03 349.36 362.87 352.59 357.1"/>
      <polygon class="cls-2" points="342.85 354.52 334.07 343.28 334.07 342.95 333.82 342.95 338.63 339.19 346.08 348.75 342.85 354.52"/>
    </g>
  </g>
  <polygon class="cls-1" points="215.99 325.19 215.99 308.68 199.47 308.68 199.47 325.21 215.99 325.21 215.99 391.22 222.25 391.22 222.25 378.21 226.04 378.21 226.04 391.22 232.51 391.22 232.51 325.19 215.99 325.19"/>
  <path class="cls-1" d="m466.43,325.19c-18.23,0-33,14.77-33,33v33.01h6.36v-13h3.79v13h6.36v-33.01c0-9.1,7.39-16.48,16.49-16.48,4.34,0,8.27,1.68,11.21,4.42l11.68-11.68c-5.94-5.72-14-9.26-22.9-9.26Z"/>
</svg>